<?xml version="1.0" encoding="utf-8"?>
<!-- Generator: Adobe Illustrator 27.0.0, SVG Export Plug-In . SVG Version: 6.00 Build 0)  -->
<svg version="1.1" xmlns="http://www.w3.org/2000/svg" xmlns:xlink="http://www.w3.org/1999/xlink" x="0px" y="0px"
	 viewBox="0 0 683.5 255.5" style="enable-background:new 0 0 683.5 255.5;" xml:space="preserve">
<style type="text/css">
	.st0{fill:url(#SVGID_1_);}
	.st1{fill:url(#SVGID_00000018207813315142610930000003765686763600354957_);}
	.st2{fill:url(#SVGID_00000094618467280803244710000018192733176315488952_);}
	.st3{fill:url(#SVGID_00000153675084658350821190000017239771928654061461_);}
	.st4{fill:url(#SVGID_00000060747433273282658490000004501615769425312162_);}
</style>
<g id="Layer_1">
</g>
<g id="_x3C_Layer_x3E_">
	<g>
		<g>
			<path d="M525,207.8c0-13.8,10.6-23.6,24.8-23.6c7.9,0,14.5,2.9,18.8,8.1l-6.8,6.3c-3.1-3.5-6.9-5.4-11.5-5.4
				c-8.6,0-14.6,6-14.6,14.6c0,8.6,6.1,14.6,14.6,14.6c4.6,0,8.4-1.8,11.5-5.4l6.8,6.3c-4.3,5.3-10.9,8.2-18.9,8.2
				C535.6,231.4,525,221.6,525,207.8z"/>
			<path d="M611.1,222.2v8.5h-35.4v-45.7h34.6v8.5h-24v9.9h21.2v8.2h-21.2v10.6H611.1z"/>
			<path d="M659.2,201.5c0,10.2-7.6,16.5-19.9,16.5h-9.2v12.6h-10.6v-45.7h19.8C651.6,184.9,659.2,191.3,659.2,201.5z M648.5,201.5
				c0-5-3.3-8-9.7-8h-8.6v15.9h8.6C645.2,209.4,648.5,206.5,648.5,201.5z"/>
		</g>
	</g>
	<linearGradient id="SVGID_1_" gradientUnits="userSpaceOnUse" x1="91.7656" y1="230.658" x2="91.7656" y2="71.698">
		<stop  offset="0" style="stop-color:#FF5923"/>
		<stop  offset="0.9684" style="stop-color:#F69000"/>
	</linearGradient>
	<path class="st0" d="M23.6,230.7h136.3v-66.1l-13.7-11.7l13.7-11.4V71.7H23.6V230.7z M69.1,112.8h45.4v20H69.1V112.8z M69.1,172.3
		h45.4v20H69.1V172.3z"/>
	
		<linearGradient id="SVGID_00000006696422026191904230000017338591156029783697_" gradientUnits="userSpaceOnUse" x1="385.8651" y1="230.5499" x2="385.8651" y2="71.5899">
		<stop  offset="0" style="stop-color:#FF5923"/>
		<stop  offset="0.9684" style="stop-color:#F69000"/>
	</linearGradient>
	<polygon style="fill:url(#SVGID_00000006696422026191904230000017338591156029783697_);" points="379.1,71.6 333.7,71.6 
		333.7,230.5 438,230.5 438,185.1 379.1,185.1 	"/>
	
		<linearGradient id="SVGID_00000083811838418097405930000017576921055054506113_" gradientUnits="userSpaceOnUse" x1="480.0841" y1="230.5499" x2="480.0841" y2="71.5899">
		<stop  offset="0" style="stop-color:#FF5923"/>
		<stop  offset="0.9684" style="stop-color:#F69000"/>
	</linearGradient>
	<polygon style="fill:url(#SVGID_00000083811838418097405930000017576921055054506113_);" points="412,71.6 412,117 457.4,117 
		457.4,230.5 502.8,230.5 502.8,117 548.2,117 548.2,71.6 	"/>
	<g>
		
			<linearGradient id="SVGID_00000148651463309541622810000015244142924112459440_" gradientUnits="userSpaceOnUse" x1="214.6258" y1="260.6415" x2="214.6258" y2="41.4981">
			<stop  offset="0" style="stop-color:#FF5923"/>
			<stop  offset="0.9684" style="stop-color:#F69000"/>
		</linearGradient>
		<polygon style="fill:url(#SVGID_00000148651463309541622810000015244142924112459440_);" points="211.2,170 250.8,71.6 
			178.4,71.6 178.4,230.5 234.8,230.5 241.3,170 		"/>
		
			<linearGradient id="SVGID_00000029726296820419100060000007384168425628641683_" gradientUnits="userSpaceOnUse" x1="279.1567" y1="260.6415" x2="279.1567" y2="41.4981">
			<stop  offset="0" style="stop-color:#FF5923"/>
			<stop  offset="0.9684" style="stop-color:#F69000"/>
		</linearGradient>
		<polygon style="fill:url(#SVGID_00000029726296820419100060000007384168425628641683_);" points="314.7,71.6 259.7,71.6 
			253.1,132.1 283.3,132.1 243.6,230.5 314.7,230.5 		"/>
	</g>
	<g>
		<path d="M47.4,42.2c0,4.3-3.4,6.8-9.9,6.8H24.6V24.1h12.1c6.2,0,9.4,2.6,9.4,6.5c0,2.5-1.3,4.4-3.3,5.5
			C45.6,36.9,47.4,39,47.4,42.2z M30.3,28.4v5.9H36c2.8,0,4.3-1,4.3-2.9c0-2-1.5-2.9-4.3-2.9H30.3z M41.6,41.5
			c0-2.1-1.6-3.1-4.6-3.1h-6.7v6.1H37C40,44.6,41.6,43.7,41.6,41.5z"/>
		<path d="M60,38V24.1h5.7v13.7c0,4.7,2.1,6.7,5.5,6.7c3.5,0,5.5-2,5.5-6.7V24.1h5.7V38c0,7.3-4.2,11.4-11.2,11.4
			C64.2,49.4,60,45.3,60,38z"/>
		<path d="M96.7,24.1h5.7v24.8h-5.7V24.1z"/>
		<path d="M116.8,24.1h5.7v20.2H135v4.7h-18.2V24.1z"/>
		<path d="M149.6,28.8h-7.9v-4.7h21.6v4.7h-7.9v20.2h-5.7V28.8z"/>
		<path d="M228.9,24.1l-8.1,24.8h-6.2l-5.5-16.8l-5.6,16.8h-6.1l-8.2-24.8h6l5.6,17.5l5.9-17.5h5.3l5.7,17.6l5.8-17.6H228.9z"/>
		<path d="M240.6,24.1h5.7v24.8h-5.7V24.1z"/>
		<path d="M265.9,28.8h-7.9v-4.7h21.6v4.7h-7.9v20.2h-5.7V28.8z"/>
		<path d="M313.9,24.1v24.8h-5.7V38.7h-11.3v10.2h-5.7V24.1h5.7v9.8h11.3v-9.8H313.9z"/>
	</g>
</g>
</svg>
